<svg xmlns="http://www.w3.org/2000/svg" xmlns:xlink="http://www.w3.org/1999/xlink" width="500" zoomAndPan="magnify" viewBox="0 0 375 311.25" height="415" preserveAspectRatio="xMidYMid meet" version="1.0"><defs><g/><clipPath id="9910becf39"><rect x="0" width="162" y="0" height="35"/></clipPath></defs><path fill="#231f20" d="M 216.097656 34.492188 C 214.847656 33.933594 212.773438 33.066406 210.050781 32.203125 C 208.539062 31.6875 207.242188 31.296875 205.945312 30.953125 C 204.695312 30.605469 203.007812 30.171875 201.234375 29.828125 C 197.78125 29.136719 194.195312 28.660156 190.78125 28.488281 C 189.097656 28.402344 187.28125 28.359375 185.421875 28.445312 C 183.867188 28.445312 182.269531 28.617188 180.152344 28.875 L 179.203125 29.050781 C 178.683594 29.09375 178.164062 29.179688 177.644531 29.308594 C 177.34375 29.394531 177 29.4375 176.652344 29.523438 C 176.222656 29.652344 175.746094 29.742188 175.3125 29.871094 C 175.011719 29.957031 174.753906 30 174.449219 30.085938 C 174.019531 30.214844 173.542969 30.34375 173.109375 30.519531 C 172.632812 30.648438 172.246094 30.820312 171.8125 30.992188 L 170.691406 31.425781 C 170.214844 31.597656 169.78125 31.8125 169.308594 32.03125 C 168.917969 32.203125 168.617188 32.375 168.269531 32.550781 L 167.710938 32.808594 C 167.535156 32.9375 167.320312 33.066406 167.019531 33.238281 C 166.800781 33.371094 166.628906 33.5 166.328125 33.671875 L 165.808594 34.015625 C 165.59375 34.105469 165.417969 34.234375 165.289062 34.363281 C 164.859375 34.667969 164.511719 34.925781 164.210938 35.183594 C 164.082031 35.273438 163.949219 35.402344 163.777344 35.53125 L 163.304688 35.917969 C 162.957031 36.222656 162.914062 36.652344 163.128906 37.042969 C 163.171875 37.085938 163.214844 37.128906 163.257812 37.171875 C 163.472656 37.429688 163.863281 37.519531 164.210938 37.34375 L 166.328125 36.394531 C 166.628906 36.265625 166.976562 36.136719 167.492188 35.960938 C 167.621094 35.917969 167.796875 35.832031 167.925781 35.789062 L 168.097656 35.703125 C 168.355469 35.617188 168.617188 35.574219 168.832031 35.488281 L 169.394531 35.316406 C 169.695312 35.183594 170.042969 35.097656 170.386719 35.011719 C 170.90625 34.882812 171.382812 34.707031 171.898438 34.582031 L 174.796875 33.972656 C 175.226562 33.933594 175.703125 33.847656 176.132812 33.757812 C 176.609375 33.671875 177.082031 33.628906 177.558594 33.585938 L 180.585938 33.28125 C 181.144531 33.238281 181.664062 33.238281 182.226562 33.199219 L 183.003906 33.15625 C 183.390625 33.15625 183.738281 33.15625 184.125 33.113281 L 185.46875 33.113281 C 187.152344 33.113281 188.835938 33.15625 190.566406 33.238281 C 192.25 33.328125 193.933594 33.457031 195.578125 33.628906 L 201.28125 34.320312 C 202.578125 34.492188 203.871094 34.667969 205.082031 34.839844 L 217.785156 37.171875 C 218.171875 37.257812 218.605469 37 218.734375 36.609375 C 218.90625 36.222656 218.691406 35.789062 218.347656 35.574219 C 218.347656 35.574219 217.523438 35.140625 216.097656 34.492188 Z M 162.222656 207.058594 C 162.222656 207.058594 162.738281 207.316406 163.605469 207.707031 C 163.777344 207.792969 163.90625 207.835938 164.082031 207.921875 C 164.425781 208.09375 164.816406 208.222656 165.289062 208.398438 C 165.9375 208.613281 166.628906 208.875 167.40625 209.089844 C 168.054688 209.304688 168.660156 209.476562 169.351562 209.605469 C 169.566406 209.648438 169.824219 209.691406 170.085938 209.777344 C 170.992188 209.996094 171.941406 210.125 172.980469 210.296875 L 173.066406 210.296875 C 173.972656 210.425781 175.011719 210.558594 176.265625 210.644531 C 177 210.6875 177.777344 210.6875 178.46875 210.730469 L 179.632812 210.730469 C 180.496094 210.773438 181.40625 210.730469 182.269531 210.6875 L 182.960938 210.6875 C 184.257812 210.558594 185.25 210.515625 186.160156 210.386719 C 187.109375 210.296875 188.144531 210.125 189.140625 209.953125 C 190.132812 209.824219 191.039062 209.605469 191.820312 209.476562 C 193.761719 209.042969 195.101562 208.65625 195.707031 208.441406 C 196.183594 208.265625 196.570312 208.136719 196.785156 208.050781 C 197.046875 207.964844 197.175781 207.921875 197.175781 207.921875 C 197.347656 207.835938 197.390625 207.664062 197.347656 207.53125 C 197.304688 207.316406 197.175781 207.230469 197.003906 207.273438 L 195.492188 207.402344 C 194.714844 207.488281 193.632812 207.574219 192.378906 207.664062 L 191.558594 207.75 C 190.738281 207.792969 189.875 207.835938 188.921875 207.878906 C 188.40625 207.921875 187.929688 207.964844 187.410156 207.964844 C 186.980469 208.007812 186.460938 208.050781 185.984375 208.050781 C 185.421875 208.09375 184.90625 208.09375 184.34375 208.136719 L 182.875 208.136719 L 182.054688 208.179688 L 178.511719 208.179688 C 177.820312 208.179688 177.128906 208.179688 176.4375 208.136719 C 175.960938 208.09375 175.53125 208.09375 175.054688 208.050781 C 174.449219 208.050781 173.886719 208.050781 173.328125 207.964844 C 172.894531 207.921875 172.503906 207.921875 172.117188 207.878906 C 171.511719 207.835938 170.949219 207.792969 170.429688 207.707031 L 169.871094 207.664062 C 169.609375 207.617188 169.308594 207.574219 169.046875 207.53125 C 168.917969 207.53125 168.789062 207.53125 168.660156 207.488281 L 168.445312 207.488281 C 168.226562 207.445312 168.011719 207.402344 167.835938 207.402344 C 167.019531 207.273438 166.285156 207.144531 165.632812 207.058594 C 165.117188 206.929688 164.597656 206.839844 164.164062 206.753906 L 163.949219 206.710938 C 163 206.496094 162.4375 206.453125 162.4375 206.453125 C 162.265625 206.410156 162.09375 206.496094 162.046875 206.667969 C 162.003906 206.796875 162.046875 206.929688 162.136719 207.015625 C 162.179688 207.015625 162.179688 207.058594 162.222656 207.058594 Z M 180.886719 42.183594 C 180.886719 42.183594 181.1875 42.097656 181.707031 41.882812 C 181.792969 41.835938 181.878906 41.792969 182.007812 41.75 C 182.183594 41.667969 182.355469 41.578125 182.613281 41.535156 L 183.003906 41.449219 C 183.265625 41.363281 183.523438 41.277344 183.78125 41.191406 L 184.171875 41.148438 C 184.515625 41.058594 184.90625 41.015625 185.207031 40.933594 C 185.769531 40.886719 186.289062 40.800781 186.847656 40.757812 L 188.578125 40.714844 L 189.3125 40.714844 C 189.65625 40.757812 190.046875 40.714844 190.433594 40.757812 L 190.738281 40.757812 C 191.257812 40.800781 191.730469 40.84375 192.292969 40.886719 C 192.855469 40.972656 193.460938 41.015625 194.023438 41.105469 C 194.972656 41.234375 195.878906 41.363281 196.65625 41.492188 L 200.332031 42.140625 C 200.546875 42.183594 200.761719 42.054688 200.847656 41.835938 C 200.933594 41.621094 200.847656 41.40625 200.632812 41.277344 C 200.589844 41.234375 199.464844 40.628906 197.609375 39.980469 C 197.132812 39.808594 196.613281 39.679688 196.09375 39.546875 L 195.707031 39.417969 C 195.273438 39.289062 194.839844 39.203125 194.367188 39.117188 L 194.105469 39.074219 C 193.589844 38.945312 193.070312 38.855469 192.507812 38.8125 C 191.992188 38.726562 191.429688 38.683594 190.867188 38.640625 L 190.566406 38.597656 L 188.578125 38.597656 C 188.1875 38.597656 187.757812 38.640625 187.367188 38.683594 C 187.152344 38.726562 186.894531 38.726562 186.632812 38.769531 C 186.027344 38.855469 185.421875 38.988281 184.859375 39.117188 C 184.300781 39.289062 183.78125 39.460938 183.265625 39.632812 C 183.046875 39.765625 182.789062 39.894531 182.527344 40.023438 L 182.097656 40.238281 C 181.792969 40.371094 181.535156 40.542969 181.363281 40.714844 C 181.277344 40.757812 181.230469 40.800781 181.144531 40.84375 C 180.671875 41.191406 180.453125 41.40625 180.453125 41.40625 C 180.28125 41.535156 180.195312 41.792969 180.324219 42.011719 C 180.371094 42.011719 180.371094 42.054688 180.410156 42.097656 C 180.542969 42.226562 180.714844 42.269531 180.886719 42.183594 Z M 207.542969 214.792969 L 205.039062 215.007812 C 204.261719 215.09375 203.351562 215.179688 202.230469 215.265625 C 201.148438 215.351562 199.941406 215.4375 198.601562 215.570312 L 197.132812 215.65625 C 196.226562 215.699219 195.273438 215.785156 194.28125 215.828125 C 193.332031 215.914062 192.335938 215.957031 191.300781 216 C 190.695312 216.042969 190.132812 216.042969 189.484375 216.085938 C 188.664062 216.128906 187.800781 216.128906 186.9375 216.175781 C 186.113281 216.21875 185.25 216.21875 184.386719 216.261719 C 183.523438 216.261719 182.65625 216.304688 181.75 216.304688 L 180.886719 216.304688 C 180.324219 216.347656 179.71875 216.347656 179.160156 216.304688 L 175.183594 216.261719 C 174.878906 216.261719 174.535156 216.21875 174.234375 216.21875 L 173.886719 216.21875 C 173.328125 216.175781 172.722656 216.175781 172.160156 216.128906 C 170.992188 216.085938 169.914062 216.042969 168.789062 215.957031 C 168.269531 215.914062 167.753906 215.871094 167.234375 215.828125 C 166.152344 215.742188 165.074219 215.65625 164.082031 215.527344 L 161.878906 215.265625 C 161.488281 215.222656 161.140625 215.222656 160.796875 215.179688 L 159.84375 215.007812 C 158.507812 214.792969 157.296875 214.617188 156.261719 214.445312 C 155.652344 214.359375 155.09375 214.230469 154.574219 214.140625 C 154.183594 214.015625 153.796875 213.972656 153.449219 213.882812 C 151.9375 213.582031 151.03125 213.453125 151.03125 213.453125 C 150.730469 213.40625 150.425781 213.582031 150.339844 213.839844 C 150.296875 214.058594 150.339844 214.316406 150.511719 214.445312 C 150.554688 214.488281 150.597656 214.53125 150.6875 214.574219 C 150.6875 214.574219 151.464844 214.964844 152.933594 215.613281 C 153.191406 215.699219 153.40625 215.828125 153.667969 215.957031 C 154.273438 216.175781 154.917969 216.476562 155.609375 216.734375 C 156.691406 217.082031 157.859375 217.511719 159.199219 217.902344 L 160.191406 218.203125 C 160.40625 218.289062 160.667969 218.335938 160.882812 218.378906 L 163.472656 218.980469 C 164.898438 219.328125 166.457031 219.542969 168.011719 219.804688 L 168.402344 219.847656 C 169.957031 220.105469 171.511719 220.234375 173.152344 220.367188 L 175.054688 220.496094 C 175.488281 220.496094 175.917969 220.496094 176.394531 220.539062 L 177.257812 220.539062 C 177.863281 220.582031 178.511719 220.582031 179.117188 220.582031 C 180.757812 220.582031 182.398438 220.539062 184 220.449219 L 187.496094 220.234375 C 188.273438 220.148438 189.050781 220.105469 189.832031 219.976562 C 191.558594 219.804688 193.199219 219.542969 194.714844 219.285156 L 195.316406 219.199219 C 195.878906 219.113281 196.441406 219.023438 196.917969 218.894531 C 197.5625 218.765625 198.167969 218.636719 198.730469 218.507812 L 199.03125 218.464844 C 200.027344 218.246094 201.023438 218.03125 201.882812 217.773438 L 202.660156 217.601562 C 203.699219 217.296875 204.648438 217.039062 205.429688 216.777344 C 206.121094 216.5625 206.636719 216.390625 207.15625 216.175781 C 207.589844 216.042969 207.804688 215.957031 207.804688 215.957031 C 208.109375 215.828125 208.234375 215.527344 208.148438 215.265625 C 208.0625 214.964844 207.804688 214.792969 207.542969 214.792969 Z M 289.722656 209.605469 L 287.261719 209.824219 C 286.4375 209.910156 285.488281 209.996094 284.40625 210.082031 L 276.457031 210.644531 C 275.507812 210.730469 274.46875 210.773438 273.433594 210.816406 C 272.871094 210.859375 272.265625 210.859375 271.664062 210.902344 C 270.667969 210.945312 269.675781 210.988281 268.679688 211.03125 C 267.992188 211.03125 267.257812 211.03125 266.566406 211.074219 C 265.699219 211.074219 264.835938 211.121094 263.929688 211.121094 L 263.0625 211.121094 C 262.460938 211.121094 261.898438 211.160156 261.292969 211.121094 L 258.65625 211.121094 L 256.066406 211.03125 C 255.460938 210.988281 254.898438 210.988281 254.292969 210.945312 C 253.128906 210.902344 252.046875 210.859375 250.96875 210.730469 C 250.40625 210.6875 249.84375 210.644531 249.28125 210.644531 C 248.199219 210.558594 247.207031 210.46875 246.214844 210.339844 L 244.011719 210.082031 L 241.980469 209.824219 C 240.683594 209.605469 239.519531 209.433594 238.394531 209.261719 C 237.789062 209.132812 237.226562 209.042969 236.707031 208.914062 C 236.320312 208.828125 235.972656 208.785156 235.628906 208.699219 C 234.074219 208.398438 233.167969 208.265625 233.167969 208.265625 C 232.90625 208.222656 232.601562 208.355469 232.519531 208.65625 C 232.433594 208.875 232.519531 209.089844 232.648438 209.261719 C 232.691406 209.304688 232.777344 209.347656 232.820312 209.390625 C 232.820312 209.390625 233.640625 209.777344 235.109375 210.425781 L 235.714844 210.6875 C 236.320312 210.945312 237.011719 211.292969 237.789062 211.550781 C 238.828125 211.894531 240.035156 212.285156 241.332031 212.714844 L 242.414062 213.019531 C 242.714844 213.105469 243.058594 213.191406 243.449219 213.28125 C 244.011719 213.40625 244.574219 213.539062 245.175781 213.667969 L 245.652344 213.753906 C 247.078125 214.140625 248.589844 214.359375 250.1875 214.617188 L 250.535156 214.660156 C 251.960938 214.878906 253.429688 215.007812 254.855469 215.136719 L 256.195312 215.222656 C 256.539062 215.265625 256.84375 215.265625 257.1875 215.308594 C 257.664062 215.308594 258.09375 215.351562 258.527344 215.351562 C 259.089844 215.351562 259.652344 215.351562 260.171875 215.394531 L 261.292969 215.394531 C 263.019531 215.394531 264.75 215.308594 266.433594 215.265625 L 266.738281 215.265625 C 267.644531 215.179688 268.507812 215.136719 269.371094 215.050781 C 270.28125 215.007812 271.144531 214.921875 271.964844 214.792969 C 273.910156 214.574219 275.464844 214.359375 276.847656 214.101562 C 277.148438 214.058594 277.410156 214.015625 277.710938 213.972656 C 278.1875 213.882812 278.660156 213.839844 279.136719 213.710938 L 281.167969 213.28125 C 282.246094 213.0625 283.242188 212.847656 284.148438 212.589844 L 284.839844 212.414062 C 285.917969 212.113281 286.828125 211.855469 287.5625 211.59375 C 288.167969 211.421875 288.6875 211.25 289.074219 211.121094 L 289.980469 210.773438 C 290.242188 210.6875 290.414062 210.386719 290.328125 210.082031 C 290.28125 209.824219 290.023438 209.605469 289.722656 209.605469 Z M 353.410156 199.0625 C 353.320312 199.539062 353.191406 200.015625 353.105469 200.488281 L 353.019531 200.878906 C 352.933594 201.265625 352.800781 201.65625 352.671875 202.089844 C 352.585938 202.261719 352.542969 202.476562 352.457031 202.648438 L 351.851562 204.335938 C 351.507812 205.242188 351.117188 206.019531 350.730469 206.796875 L 349.863281 208.441406 C 349.777344 208.570312 349.691406 208.742188 349.5625 208.914062 L 349.433594 209.089844 C 349.214844 209.433594 349 209.734375 348.785156 210.039062 L 348.527344 210.425781 C 348.09375 211.074219 347.703125 211.636719 347.230469 212.15625 C 346.839844 212.628906 346.410156 213.105469 346.0625 213.453125 C 345.199219 214.359375 344.765625 214.792969 344.765625 214.792969 C 344.464844 215.050781 343.988281 215.09375 343.644531 214.878906 C 343.601562 214.835938 343.554688 214.792969 343.515625 214.75 C 343.253906 214.53125 343.167969 214.140625 343.296875 213.796875 C 343.296875 213.796875 343.515625 213.191406 343.902344 212.199219 C 344.117188 211.722656 344.378906 211.160156 344.636719 210.46875 C 344.808594 210.167969 344.941406 209.867188 345.066406 209.519531 L 345.976562 207.058594 C 346.0625 206.839844 346.105469 206.667969 346.191406 206.496094 C 346.324219 206.238281 346.367188 205.976562 346.453125 205.761719 C 346.582031 205.285156 346.753906 204.8125 346.882812 204.335938 C 347.054688 203.859375 347.1875 203.34375 347.359375 202.824219 C 347.445312 202.390625 347.574219 201.875 347.703125 201.398438 C 347.835938 200.835938 347.964844 200.273438 348.09375 199.710938 L 348.742188 195.824219 C 348.871094 194.960938 348.957031 194.097656 349 193.230469 C 349 192.972656 349 192.710938 349.046875 192.453125 C 349.046875 192.152344 349.085938 191.890625 349.085938 191.632812 L 349.085938 190.941406 C 348.871094 190.683594 348.65625 190.421875 348.4375 190.164062 L 347.617188 189.171875 C 342.738281 183.25 339.0625 176.296875 335.519531 169.597656 L 334.226562 167.175781 C 332.410156 163.808594 330.769531 160.4375 329.253906 157.152344 L 329.125 156.808594 C 328.953125 156.378906 328.738281 155.945312 328.519531 155.511719 C 328.347656 155.859375 328.089844 156.203125 327.875 156.550781 C 326.144531 159.230469 324.847656 161.085938 323.855469 162.382812 C 323.164062 163.246094 322.644531 163.808594 322.257812 164.195312 C 321.78125 164.671875 321.347656 164.890625 321.261719 164.929688 C 320.917969 165.0625 320.527344 164.972656 320.269531 164.714844 C 320.226562 164.628906 320.183594 164.585938 320.097656 164.5 C 319.921875 164.066406 320.054688 163.59375 320.398438 163.332031 C 320.441406 163.332031 320.570312 163.203125 320.742188 162.945312 C 320.960938 162.644531 321.308594 162.125 321.78125 161.085938 C 322.515625 159.574219 323.421875 157.5 324.503906 154.777344 C 325.410156 152.445312 326.316406 150.113281 326.921875 148.339844 L 326.964844 148.253906 C 327.183594 143.328125 329.167969 133.996094 329.859375 130.882812 C 330.078125 129.804688 330.121094 128.679688 329.902344 127.601562 C 329.558594 126.003906 328.738281 123.671875 326.878906 121.8125 C 326.75 121.683594 326.664062 121.597656 326.53125 121.511719 L 321.996094 138.835938 C 321.910156 139.226562 321.566406 139.570312 321.21875 139.699219 C 320.789062 139.828125 320.3125 139.699219 320.007812 139.394531 C 319.75 139.136719 319.621094 138.75 319.664062 138.402344 L 321.003906 115.679688 C 320.917969 115.332031 320.875 115.027344 320.832031 114.683594 C 320.183594 108.289062 319.058594 102.152344 317.546875 96.40625 C 315.300781 87.765625 312.015625 81.328125 307.046875 75.410156 C 306.613281 74.933594 306.097656 74.328125 305.664062 73.59375 C 304.367188 71.433594 303.894531 68.972656 303.503906 66.59375 C 303.246094 65.167969 302.984375 63.832031 302.554688 62.535156 C 301.691406 59.8125 300.480469 57.175781 299.011719 54.671875 C 295.210938 48.234375 289.332031 42.789062 282.203125 39.203125 C 281.816406 38.988281 281.425781 38.769531 281.039062 38.597656 C 278.574219 37.519531 275.851562 36.871094 272.828125 36.695312 C 260.859375 36.179688 230.789062 34.925781 230.789062 34.925781 C 228.972656 34.882812 221.027344 30.953125 208.710938 24.597656 C 206.464844 23.476562 204.695312 22.566406 204.304688 22.394531 C 198.472656 19.847656 178.769531 13.105469 163.605469 30.433594 C 162.652344 31.46875 161.746094 32.203125 160.753906 32.765625 C 155.4375 35.703125 139.539062 40.84375 124.242188 38.164062 C 118.410156 37.648438 111.585938 39.808594 105.058594 44.34375 C 100.566406 47.457031 95.253906 51.773438 89.160156 57.175781 C 86.699219 59.378906 83.804688 61.152344 80.605469 62.363281 L 78.703125 63.054688 C 73.21875 65.167969 67.515625 67.371094 61.597656 68.410156 C 59.003906 68.839844 56.410156 69.015625 53.863281 69.230469 C 50.578125 69.445312 47.164062 69.707031 43.921875 70.527344 C 41.59375 71.132812 39.472656 72.515625 37.960938 74.414062 C 35.585938 77.398438 34.117188 80.765625 33.683594 84.308594 C 33.035156 89.667969 31.914062 94.765625 30.746094 99.992188 C 29.96875 103.363281 28.285156 106.34375 26.640625 109.28125 C 25.605469 111.097656 24.523438 113 23.703125 114.941406 C 22.148438 118.742188 20.980469 122.460938 19.730469 126.433594 C 19.382812 127.601562 18.996094 128.769531 18.648438 129.933594 L 17.957031 131.964844 C 16.792969 135.507812 15.582031 139.226562 14.761719 142.898438 C 12.773438 151.753906 14.933594 159.746094 17.222656 168.214844 C 18.648438 173.441406 20.074219 178.628906 21.542969 183.855469 C 21.628906 184.117188 31.957031 213.019531 38.78125 219.804688 C 38.914062 219.933594 39.042969 220.0625 39.171875 220.191406 L 39.34375 220.324219 L 39.691406 220.710938 C 39.863281 220.882812 40.078125 221.101562 40.339844 221.359375 C 46.085938 227.105469 55.070312 229.265625 66.347656 227.578125 C 66.652344 227.449219 67.125 227.363281 67.730469 227.277344 C 70.234375 226.757812 74.859375 225.851562 76.285156 221.359375 C 76.585938 220.40625 76.542969 219.371094 76.113281 218.421875 C 74.125 213.882812 68.335938 199.152344 68.292969 198.976562 C 68.207031 198.761719 61.035156 178.5 62.847656 159.703125 C 62.847656 158.191406 64.058594 136.242188 64.578125 126.867188 L 64.621094 126.566406 L 60.601562 109.023438 C 60.515625 108.636719 60.730469 108.117188 61.078125 107.941406 C 61.464844 107.726562 61.941406 107.8125 62.242188 108.117188 L 65.917969 113.300781 L 72.09375 96.148438 C 72.179688 95.886719 72.484375 95.628906 72.742188 95.585938 C 73.347656 95.414062 73.996094 96.148438 73.824219 96.667969 C 72.914062 101.03125 69.847656 115.636719 69.933594 119.652344 C 69.976562 121.597656 69.847656 130.367188 69.070312 161.214844 L 69.070312 161.863281 C 69.027344 162.511719 69.027344 163.160156 69.070312 163.851562 L 69.632812 184.117188 C 69.71875 186.921875 70.234375 189.644531 71.1875 192.238281 C 74.253906 200.445312 76.890625 206.667969 78.835938 210.296875 C 79.007812 210.601562 79.265625 211.121094 79.570312 211.722656 L 79.871094 212.414062 C 80.5625 213.839844 81.730469 215.09375 83.113281 215.871094 C 87.605469 218.421875 99.960938 224.296875 117.503906 224.121094 L 117.851562 224.082031 C 121.910156 223.5625 134.3125 222.050781 137.160156 208.398438 C 137.117188 206.28125 137.421875 183.597656 137.550781 173.703125 L 137.550781 173.398438 C 137.207031 170.765625 135.132812 149.984375 135.476562 136.890625 C 135.648438 130.667969 135.261719 124.40625 134.3125 118.226562 C 132.710938 107.902344 131.113281 94.464844 132.496094 89.0625 C 132.582031 88.757812 132.84375 88.5 133.101562 88.414062 C 133.578125 88.285156 134.179688 88.675781 134.265625 89.105469 C 134.914062 94.074219 137.117188 104.226562 138.371094 107.207031 C 140.058594 103.621094 144.679688 91.699219 145.414062 87.851562 C 145.457031 87.550781 145.671875 87.332031 145.933594 87.203125 C 146.453125 86.988281 147.101562 87.421875 147.101562 87.980469 C 146.667969 93.945312 143.902344 107.207031 142.691406 110.707031 C 142.433594 111.488281 142.261719 112.308594 142.175781 113.171875 C 141.742188 118.527344 141.09375 132.828125 140.835938 138.75 L 140.792969 139.09375 L 142.691406 171.671875 L 142.996094 195.347656 L 145.890625 215.871094 C 145.890625 215.871094 146.148438 216.691406 147.273438 217.816406 C 149.691406 220.234375 156.519531 224.382812 174.878906 225.074219 C 175.3125 225.117188 207.113281 228.53125 216.617188 214.015625 C 219.082031 207.316406 223.273438 188.953125 222.019531 175.472656 C 221.933594 174.566406 221.933594 173.574219 222.019531 172.535156 C 222.234375 168.820312 222.625 158.882812 222.625 158.796875 L 223.617188 129.15625 C 223.660156 128.292969 223.617188 127.515625 223.488281 126.78125 C 222.320312 118.789062 215.320312 78.476562 214.109375 73.722656 C 214.027344 73.335938 214.242188 72.859375 214.585938 72.6875 C 215.019531 72.472656 215.667969 72.730469 215.796875 73.203125 C 218.089844 77.828125 224.609375 97.960938 226.945312 105.265625 L 234.636719 90.53125 C 234.765625 90.273438 235.066406 90.054688 235.324219 90.011719 C 235.929688 89.96875 236.535156 90.703125 236.277344 91.308594 C 234.160156 96.882812 227.375 116.585938 229.320312 134.601562 C 229.449219 135.464844 229.492188 136.285156 229.449219 137.066406 C 229.40625 139.484375 229.320312 144.019531 229.234375 149.378906 C 229.019531 163.074219 228.757812 181.871094 228.328125 186.101562 C 227.808594 187.65625 226.816406 201.832031 226.253906 210.988281 C 226.296875 211.03125 226.554688 212.15625 227.851562 213.453125 C 230.53125 216.085938 236.75 219.070312 251.355469 218.378906 C 253.816406 218.117188 256.800781 218.160156 259.953125 218.203125 C 268.636719 218.246094 279.441406 218.335938 289.289062 213.582031 C 292.574219 212.113281 306.613281 198.546875 308.128906 186.320312 C 309.425781 175.90625 308.863281 146.484375 308.648438 137.710938 C 308.558594 135.121094 308 132.570312 306.960938 130.195312 L 299.875 114.078125 C 299.746094 113.734375 299.875 113.171875 300.222656 112.914062 C 300.566406 112.695312 301.128906 112.78125 301.429688 113.042969 L 308.515625 120.128906 L 310.160156 91.222656 C 310.203125 90.878906 310.460938 90.488281 310.808594 90.402344 C 311.28125 90.230469 311.929688 90.660156 312.015625 91.136719 C 313.054688 101.9375 314.695312 120.515625 314.175781 124.316406 C 313.789062 127.300781 313.3125 160.828125 313.3125 161.171875 L 313.3125 194.960938 L 323.683594 195.390625 C 324.199219 195.433594 324.675781 196.125 324.503906 196.601562 C 324.417969 196.949219 324.113281 197.207031 323.769531 197.25 C 320.3125 197.941406 308.128906 201.613281 298.058594 218.335938 C 292.53125 227.535156 278.832031 229.613281 268.726562 228.574219 C 256.496094 227.363281 239.949219 227.710938 230.574219 236.351562 L 230.054688 236.78125 C 221.195312 243.824219 206.464844 258.6875 206.984375 278.996094 C 207.070312 281.5 207.847656 283.878906 209.273438 285.949219 C 211.519531 289.148438 214.414062 291.914062 217.4375 293.769531 C 218 292.390625 218.648438 291.050781 219.253906 289.710938 C 222.0625 283.746094 225.042969 278.519531 228.070312 274.199219 C 228.542969 273.550781 229.019531 272.859375 229.492188 272.210938 C 229.96875 271.5625 230.488281 270.960938 230.960938 270.351562 C 231.914062 269.144531 232.949219 267.976562 234.117188 266.765625 L 234.679688 266.25 C 235.066406 265.863281 235.414062 265.515625 235.800781 265.167969 C 236.015625 264.996094 236.191406 264.824219 236.40625 264.652344 C 236.75 264.347656 237.097656 264.046875 237.488281 263.742188 C 238.609375 262.878906 239.734375 262.101562 240.8125 261.539062 C 241.722656 260.980469 242.757812 260.503906 243.882812 260.070312 C 244.398438 259.941406 244.832031 259.8125 245.175781 259.679688 C 245.695312 259.554688 246.085938 259.464844 246.429688 259.421875 L 246.90625 259.335938 C 246.949219 259.335938 247.121094 259.292969 247.164062 259.335938 L 247.421875 259.292969 C 247.683594 259.25 247.941406 259.25 248.15625 259.25 C 248.503906 259.207031 248.675781 259.207031 248.675781 259.207031 C 249.023438 259.164062 249.367188 259.421875 249.410156 259.769531 C 249.453125 260.113281 249.238281 260.460938 248.890625 260.546875 C 248.890625 260.546875 248.675781 260.589844 248.289062 260.632812 L 247.207031 260.847656 C 247.078125 260.933594 246.949219 260.933594 246.863281 260.980469 C 246.558594 261.066406 246.300781 261.152344 245.996094 261.28125 L 245.78125 261.367188 C 245.566406 261.453125 245.261719 261.582031 244.960938 261.714844 L 244.617188 261.839844 C 243.75 262.316406 242.84375 262.835938 242.066406 263.484375 C 241.203125 264.089844 240.335938 264.867188 239.300781 265.863281 C 238.953125 266.164062 238.652344 266.507812 238.351562 266.898438 L 237.960938 267.332031 C 237.53125 267.804688 237.140625 268.324219 236.707031 268.84375 C 235.671875 270.222656 234.851562 271.433594 234.160156 272.558594 L 233.8125 273.074219 C 233.511719 273.550781 233.253906 274.027344 232.992188 274.5 C 232.648438 275.019531 232.386719 275.539062 232.085938 276.058594 L 231.824219 276.53125 C 229.539062 280.894531 227.332031 286.167969 225.390625 292.128906 C 225 293.339844 224.609375 294.550781 224.265625 295.714844 C 225.214844 295.757812 226.167969 295.628906 227.117188 295.457031 C 233.253906 294.246094 244.097656 291.179688 248.675781 287.851562 C 249.453125 287.292969 250.449219 286.683594 251.527344 286.082031 C 251.527344 285.996094 251.570312 285.949219 251.570312 285.863281 C 251.875 284.09375 252.5625 280.59375 253.6875 277.050781 C 253.949219 276.316406 254.207031 275.496094 254.507812 274.71875 C 254.855469 273.855469 255.113281 273.121094 255.417969 272.515625 C 256.023438 271.132812 256.710938 269.878906 257.449219 268.800781 C 257.792969 268.28125 258.136719 267.847656 258.441406 267.414062 C 258.789062 267.027344 259.089844 266.679688 259.304688 266.421875 C 259.480469 266.292969 259.652344 266.121094 259.78125 266.035156 L 259.910156 265.863281 C 260.039062 265.773438 260.125 265.6875 260.125 265.6875 C 260.300781 265.515625 260.515625 265.558594 260.6875 265.6875 L 260.730469 265.6875 C 260.859375 265.816406 260.90625 266.078125 260.773438 266.25 C 260.773438 266.25 260.730469 266.335938 260.601562 266.507812 C 260.558594 266.507812 260.515625 266.597656 260.472656 266.636719 C 260.386719 266.765625 260.257812 266.898438 260.171875 267.113281 L 260.039062 267.285156 C 259.867188 267.546875 259.695312 267.804688 259.523438 268.148438 C 259.304688 268.539062 259.089844 268.972656 258.871094 269.578125 C 258.441406 270.613281 258.007812 271.910156 257.664062 273.292969 C 257.535156 274.027344 257.359375 274.71875 257.230469 275.496094 C 257.144531 276.058594 257.058594 276.578125 257.015625 277.136719 L 256.929688 277.742188 C 256.667969 279.902344 256.582031 281.890625 256.582031 283.488281 C 259.78125 282.019531 263.0625 280.765625 265.355469 280.292969 C 265.355469 280.117188 265.398438 279.945312 265.441406 279.773438 C 265.527344 278.953125 265.65625 278.089844 265.742188 277.136719 C 265.828125 276.273438 265.914062 275.324219 265.957031 274.199219 L 265.957031 272.644531 L 265.914062 271.996094 C 265.914062 271.695312 265.914062 271.390625 265.871094 271.132812 C 265.828125 270.09375 265.65625 269.058594 265.441406 268.023438 C 265.222656 267.199219 264.921875 266.078125 264.488281 265.167969 C 264.101562 264.304688 263.625 263.527344 262.933594 262.75 L 262.460938 262.230469 C 262.285156 262.101562 262.15625 261.972656 261.984375 261.839844 L 261.726562 261.625 C 261.636719 261.539062 261.550781 261.453125 261.421875 261.410156 L 260.859375 261.066406 C 260.601562 260.890625 260.300781 260.761719 260.039062 260.632812 L 259.738281 260.503906 C 259.480469 260.371094 259.21875 260.289062 258.914062 260.203125 L 258.570312 260.113281 C 258.3125 260.027344 258.183594 259.984375 258.054688 259.984375 L 257.492188 259.855469 C 257.359375 259.855469 257.1875 259.8125 257.015625 259.8125 C 256.84375 259.769531 256.625 259.726562 256.453125 259.726562 C 256.195312 259.726562 255.933594 259.679688 255.675781 259.679688 C 255.332031 259.636719 254.984375 259.636719 254.726562 259.636719 C 253.6875 259.679688 253.128906 259.726562 253.128906 259.726562 C 252.738281 259.726562 252.4375 259.421875 252.394531 259.121094 C 252.347656 258.777344 252.609375 258.429688 252.953125 258.386719 C 252.953125 258.386719 253.515625 258.257812 254.507812 258.039062 C 254.8125 257.996094 255.199219 257.910156 255.632812 257.867188 C 255.890625 257.867188 256.152344 257.824219 256.410156 257.78125 C 256.667969 257.738281 256.972656 257.78125 257.230469 257.78125 L 257.664062 257.78125 C 257.835938 257.78125 258.054688 257.738281 258.269531 257.78125 L 258.699219 257.78125 C 258.789062 257.824219 258.871094 257.824219 259.003906 257.824219 L 259.390625 257.867188 C 259.78125 257.910156 260.171875 257.953125 260.558594 258.085938 L 260.859375 258.167969 C 261.25 258.257812 261.683594 258.34375 262.113281 258.558594 L 262.847656 258.859375 C 263.0625 258.945312 263.238281 259.078125 263.453125 259.164062 L 263.667969 259.292969 C 264.144531 259.554688 264.621094 259.898438 265.050781 260.203125 L 265.222656 260.332031 C 266.261719 261.238281 267.167969 262.1875 267.816406 263.226562 C 268.464844 264.132812 269.070312 265.210938 269.675781 266.636719 C 270.105469 267.804688 270.539062 269.058594 270.839844 270.3125 C 270.929688 270.65625 271.015625 271.046875 271.054688 271.433594 C 271.144531 271.648438 271.1875 271.867188 271.230469 272.082031 L 271.359375 272.773438 C 271.402344 273.121094 271.445312 273.507812 271.53125 273.898438 C 271.664062 275.0625 271.792969 276.1875 271.835938 277.222656 C 271.921875 278.304688 271.964844 279.296875 271.964844 280.25 C 271.964844 281.371094 271.921875 282.496094 271.878906 283.703125 C 275.8125 285.691406 280.476562 286.039062 283.328125 286.039062 C 288.078125 285.996094 293.136719 285 298.753906 282.96875 C 302.121094 281.761719 305.277344 280.03125 308.257812 277.957031 C 308.300781 277.699219 308.34375 277.441406 308.386719 277.136719 C 308.691406 274.199219 309.078125 269.792969 309.078125 265.253906 C 309.078125 264.175781 309.035156 263.09375 308.992188 262.015625 C 308.949219 260.980469 308.90625 259.941406 308.777344 258.945312 C 308.691406 257.953125 308.558594 256.960938 308.429688 256.097656 C 308.257812 255.1875 308.085938 254.367188 307.867188 253.589844 C 307.695312 252.8125 307.480469 252.164062 307.265625 251.515625 C 307.003906 250.953125 306.789062 250.480469 306.613281 250.089844 C 306.445312 249.746094 306.3125 249.527344 306.183594 249.355469 L 305.882812 248.796875 C 305.621094 248.40625 305.710938 247.84375 306.140625 247.585938 C 306.488281 247.28125 306.960938 247.324219 307.347656 247.714844 L 307.609375 247.972656 C 307.957031 248.320312 308.171875 248.578125 308.429688 248.921875 C 308.734375 249.3125 309.078125 249.832031 309.46875 250.4375 C 309.855469 251.085938 310.246094 251.820312 310.589844 252.59375 C 310.980469 253.375 311.367188 254.28125 311.714844 255.1875 C 312.0625 256.140625 312.363281 257.132812 312.707031 258.167969 C 313.011719 259.207031 313.269531 260.289062 313.53125 261.410156 C 313.789062 262.492188 314.046875 263.613281 314.265625 264.738281 C 314.695312 266.984375 315.042969 269.359375 315.386719 271.953125 C 316.855469 270.484375 318.238281 268.929688 319.578125 267.371094 C 319.621094 267.242188 319.621094 267.113281 319.621094 266.941406 C 319.707031 266.121094 319.75 265.082031 319.707031 264.046875 C 319.707031 263.65625 319.664062 263.3125 319.664062 262.964844 L 319.621094 262.578125 C 319.578125 262.273438 319.535156 261.972656 319.492188 261.714844 L 319.40625 261.195312 C 319.363281 260.980469 319.273438 260.71875 319.230469 260.460938 L 318.671875 258.859375 C 318.585938 258.730469 318.496094 258.558594 318.410156 258.429688 C 318.324219 258.257812 318.28125 258.125 318.195312 257.996094 C 318.109375 257.78125 317.9375 257.609375 317.761719 257.390625 L 317.375 256.875 C 317.160156 256.617188 317.203125 256.226562 317.417969 255.964844 C 317.675781 255.707031 318.066406 255.707031 318.324219 255.921875 C 318.324219 255.921875 318.539062 256.097656 318.886719 256.398438 L 319.058594 256.570312 C 319.273438 256.699219 319.449219 256.917969 319.578125 257.089844 L 319.792969 257.351562 C 319.964844 257.523438 320.140625 257.738281 320.269531 257.953125 L 321.21875 259.511719 C 321.390625 259.8125 321.566406 260.15625 321.695312 260.503906 C 321.78125 260.761719 321.867188 260.933594 321.953125 261.152344 C 322.042969 261.410156 322.167969 261.714844 322.300781 262.058594 L 322.386719 262.359375 C 322.472656 262.707031 322.601562 263.050781 322.644531 263.398438 C 327.65625 256.570312 330.984375 249.746094 332.367188 245.425781 C 333.492188 242.011719 335.21875 238.859375 337.59375 236.046875 C 341.527344 231.296875 346.0625 225.636719 349.863281 219.542969 C 351.9375 216.21875 354.144531 212.628906 354.660156 208.875 C 355.09375 205.632812 354.402344 202.390625 353.410156 199.0625 Z M 369.480469 229.523438 C 368.746094 230.949219 367.75 233.285156 367.277344 234.753906 C 362.78125 249.054688 327.742188 286.253906 320.917969 292.777344 C 318.929688 294.375 317.203125 295.628906 315.386719 296.796875 C 307.78125 301.679688 299.011719 304.660156 290.066406 305.4375 C 283.414062 306 276.546875 305.4375 269.546875 303.796875 C 267.210938 303.191406 264.921875 302.542969 262.632812 301.765625 C 261.8125 301.460938 260.992188 301.203125 260.125 300.855469 C 259.132812 300.46875 258.136719 300.554688 256.28125 300.726562 L 255.027344 300.902344 C 253.558594 301.03125 252.132812 301.160156 250.707031 301.375 C 248.808594 301.636719 246.863281 301.980469 244.960938 302.585938 C 242.972656 303.191406 241.203125 304.316406 239.171875 305.609375 C 237.660156 306.5625 236.148438 307.511719 234.503906 308.332031 C 233.902344 308.632812 233.210938 308.9375 232.519531 309.195312 C 228.5 310.535156 224.222656 309.886719 221.414062 309.457031 C 212.382812 308.070312 203.828125 301.9375 197.390625 292.171875 C 188.535156 278.824219 193.761719 260.980469 197.433594 252.035156 C 194.28125 251.34375 188.792969 249.917969 184.472656 249.054688 C 182.3125 248.621094 180.28125 248.535156 178.382812 248.75 C 160.449219 250.953125 145.933594 239.203125 140.445312 234.753906 C 140.097656 234.492188 139.625 234.449219 139.238281 234.667969 C 126.363281 241.40625 110.03125 242.875 90.714844 238.984375 C 90.027344 238.859375 89.246094 238.898438 88.554688 239.160156 C 83.585938 240.972656 71.835938 243.566406 64.835938 243.523438 C 50.621094 243.738281 38.914062 239.9375 31.136719 232.417969 L 30.960938 232.246094 C 30.054688 231.339844 29.234375 230.257812 28.585938 229.09375 L 26.164062 224.773438 C 21.457031 216.605469 13.636719 202.867188 10.828125 196.039062 C 10.179688 194.398438 9.445312 192.800781 8.710938 191.199219 C 2.445312 178.28125 1.195312 147.089844 1.324219 141.644531 C 0.460938 131.402344 15.0625 94.722656 19.644531 83.574219 C 25.429688 65.472656 28.414062 62.488281 32 60.285156 C 34.59375 58.515625 36.925781 57.480469 39.300781 56.960938 C 66.867188 50.953125 79.050781 43.566406 83.628906 40.757812 L 84.320312 40.324219 C 102.726562 21.273438 125.582031 21.054688 130.464844 22.699219 C 143.253906 24.210938 148.136719 21.1875 153.148438 16.996094 C 159.414062 11.726562 166.285156 7.921875 173.542969 5.675781 C 191.773438 0.015625 203.527344 4.683594 209.1875 6.929688 C 210.09375 7.273438 210.828125 7.621094 211.347656 7.703125 L 212.945312 8.355469 C 231.4375 19.976562 249.023438 21.402344 256.496094 20.410156 C 259.390625 20.0625 262.328125 19.847656 265.222656 19.890625 C 288.339844 20.234375 298.535156 27.625 302.855469 30.820312 L 303.765625 31.46875 C 329.210938 51.730469 342.910156 123.714844 343.253906 128.769531 C 343.773438 144.367188 350.6875 161.648438 363.777344 180.355469 C 369.4375 188.480469 372.851562 197.726562 373.628906 207.058594 C 374.535156 218.117188 371.683594 225.203125 369.480469 229.523438 Z M 250.621094 202.304688 C 250.449219 202.261719 250.316406 202.261719 250.144531 202.21875 L 249.972656 202.21875 C 249.195312 202.046875 248.417969 201.957031 247.8125 201.875 L 246.085938 201.527344 C 245.132812 201.3125 244.617188 201.222656 244.617188 201.222656 C 244.441406 201.222656 244.269531 201.3125 244.226562 201.484375 C 244.183594 201.613281 244.226562 201.742188 244.3125 201.832031 C 244.3125 201.832031 244.355469 201.875 244.398438 201.875 C 244.398438 201.875 244.875 202.132812 245.78125 202.519531 C 245.910156 202.609375 246.085938 202.648438 246.214844 202.738281 C 246.558594 202.867188 246.992188 203.082031 247.464844 203.210938 C 248.074219 203.429688 248.808594 203.6875 249.582031 203.945312 C 250.1875 204.117188 250.835938 204.292969 251.570312 204.421875 L 252.261719 204.59375 C 253.214844 204.8125 254.25 204.984375 255.242188 205.113281 C 256.195312 205.242188 257.230469 205.371094 258.441406 205.414062 C 259.175781 205.503906 259.953125 205.546875 260.730469 205.546875 L 261.8125 205.546875 C 262.546875 205.546875 263.28125 205.546875 264.058594 205.503906 C 264.402344 205.503906 264.75 205.503906 265.136719 205.460938 C 266.390625 205.371094 267.425781 205.285156 268.335938 205.199219 C 269.417969 205.070312 270.410156 204.941406 271.316406 204.769531 C 272.222656 204.636719 273.042969 204.464844 273.824219 204.292969 L 273.953125 204.25 C 275.765625 203.902344 277.0625 203.515625 277.882812 203.253906 C 278.1875 203.167969 278.488281 203.039062 278.707031 202.953125 L 278.964844 202.867188 C 279.179688 202.78125 279.308594 202.738281 279.308594 202.738281 C 279.484375 202.691406 279.566406 202.519531 279.566406 202.347656 C 279.527344 202.175781 279.398438 202.089844 279.179688 202.089844 C 279.179688 202.089844 278.617188 202.132812 277.667969 202.21875 C 276.890625 202.304688 275.8125 202.347656 274.515625 202.476562 L 273.734375 202.519531 C 272.914062 202.609375 272.007812 202.648438 271.054688 202.691406 C 270.453125 202.738281 269.847656 202.78125 269.199219 202.824219 C 268.851562 202.824219 268.507812 202.824219 268.160156 202.867188 C 267.601562 202.910156 267.039062 202.910156 266.476562 202.910156 C 266.003906 202.953125 265.527344 202.953125 265.007812 202.953125 C 264.707031 202.953125 264.359375 202.996094 264.015625 202.996094 C 263.28125 202.996094 262.546875 203.039062 261.8125 202.996094 L 260.644531 202.996094 C 259.953125 202.996094 259.261719 202.996094 258.613281 202.953125 C 258.183594 202.910156 257.75 202.910156 257.359375 202.910156 C 256.710938 202.867188 256.109375 202.867188 255.503906 202.78125 C 255.113281 202.738281 254.726562 202.738281 254.335938 202.691406 C 253.730469 202.648438 253.128906 202.609375 252.5625 202.519531 C 252.304688 202.476562 252.046875 202.476562 251.746094 202.433594 Z M 292.488281 52.382812 L 292.097656 52.164062 C 291.449219 51.820312 290.714844 51.386719 289.851562 50.953125 C 288.8125 50.4375 287.648438 49.875 286.351562 49.3125 C 284.882812 48.664062 283.457031 48.058594 282.03125 47.542969 C 280.648438 47.023438 278.921875 46.417969 277.148438 45.898438 C 275.550781 45.382812 273.777344 44.949219 271.792969 44.472656 C 269.675781 44.042969 267.816406 43.695312 266.132812 43.480469 C 265.179688 43.351562 264.230469 43.265625 263.28125 43.179688 C 262.328125 43.09375 261.335938 43.046875 260.429688 43.003906 C 258.699219 42.960938 256.886719 42.960938 254.769531 43.136719 C 253.816406 43.21875 252.953125 43.351562 252.046875 43.480469 L 251.660156 43.523438 C 250.921875 43.652344 250.234375 43.78125 249.5 43.953125 L 248.890625 44.085938 C 248.289062 44.257812 247.683594 44.386719 247.121094 44.5625 C 246.34375 44.820312 245.652344 45.035156 244.917969 45.296875 L 242.972656 46.117188 C 242.585938 46.289062 242.238281 46.503906 241.847656 46.675781 L 238.652344 48.664062 C 238.175781 49.011719 237.789062 49.3125 237.488281 49.570312 L 236.578125 50.351562 C 236.277344 50.609375 236.191406 51.085938 236.449219 51.472656 C 236.449219 51.515625 236.492188 51.558594 236.535156 51.601562 C 236.796875 51.863281 237.183594 51.90625 237.488281 51.773438 L 238.175781 51.472656 C 238.523438 51.257812 239.085938 50.996094 239.777344 50.695312 L 241.070312 50.179688 C 241.246094 50.089844 241.417969 50.003906 241.589844 49.917969 L 242.414062 49.660156 C 242.628906 49.570312 242.84375 49.527344 243.101562 49.445312 C 243.40625 49.3125 243.707031 49.226562 244.097656 49.097656 L 250.1875 47.886719 C 250.621094 47.84375 251.054688 47.800781 251.527344 47.757812 L 252.523438 47.671875 C 253.34375 47.628906 254.164062 47.628906 254.984375 47.585938 L 256.023438 47.585938 C 256.496094 47.542969 257.015625 47.542969 257.535156 47.585938 L 258.484375 47.628906 C 259.046875 47.628906 259.605469 47.628906 260.171875 47.714844 C 261.074219 47.757812 261.941406 47.84375 262.847656 47.929688 C 263.710938 48.015625 264.621094 48.101562 265.527344 48.234375 C 267.339844 48.449219 269.113281 48.75 270.839844 49.097656 C 272.613281 49.445312 274.339844 49.789062 276.027344 50.179688 C 277.710938 50.566406 279.308594 50.953125 280.820312 51.34375 L 282.335938 51.773438 C 283.328125 52.035156 284.277344 52.292969 285.140625 52.554688 L 288.773438 53.632812 C 289.851562 53.933594 290.800781 54.238281 291.582031 54.496094 L 294.042969 55.277344 C 294.429688 55.40625 294.863281 55.234375 295.039062 54.84375 C 295.253906 54.453125 295.078125 54.023438 294.777344 53.761719 C 294.777344 53.761719 293.957031 53.199219 292.488281 52.382812 Z M 252.4375 57.480469 C 252.4375 57.480469 252.824219 57.304688 253.472656 57.003906 C 253.601562 56.960938 253.730469 56.875 253.90625 56.832031 C 254.164062 56.746094 254.421875 56.613281 254.726562 56.527344 C 255.15625 56.398438 255.632812 56.269531 256.152344 56.140625 L 256.28125 56.097656 C 256.625 56.011719 256.929688 55.964844 257.230469 55.921875 C 257.449219 55.878906 257.621094 55.835938 257.835938 55.835938 L 258.269531 55.75 C 258.613281 55.75 259.003906 55.707031 259.304688 55.664062 C 259.605469 55.664062 259.867188 55.621094 260.171875 55.621094 L 260.472656 55.621094 C 261.292969 55.621094 262.15625 55.664062 262.847656 55.707031 C 263.582031 55.707031 264.359375 55.792969 265.3125 55.921875 C 266.089844 56.011719 266.910156 56.140625 267.773438 56.3125 L 268.117188 56.398438 C 268.769531 56.527344 269.460938 56.65625 270.148438 56.832031 C 271.574219 57.132812 272.957031 57.480469 274.339844 57.910156 C 276.761719 58.558594 278.402344 59.121094 278.445312 59.121094 C 278.660156 59.207031 278.878906 59.078125 279.007812 58.90625 C 279.09375 58.6875 279.050781 58.429688 278.832031 58.300781 C 278.792969 58.257812 277.363281 57.261719 274.945312 56.183594 C 274.253906 55.835938 273.5625 55.578125 272.957031 55.363281 L 272.785156 55.320312 C 272.136719 55.058594 271.445312 54.800781 270.710938 54.585938 C 269.15625 54.109375 267.425781 53.71875 265.613281 53.460938 C 264.835938 53.375 263.929688 53.289062 262.933594 53.242188 C 262.027344 53.199219 261.074219 53.289062 260.339844 53.332031 L 260.171875 53.332031 C 259.78125 53.375 259.433594 53.417969 259.089844 53.460938 C 258.828125 53.546875 258.570312 53.589844 258.3125 53.632812 L 257.878906 53.71875 C 257.664062 53.761719 257.449219 53.808594 257.230469 53.894531 L 256.757812 53.976562 C 256.453125 54.109375 256.152344 54.238281 255.761719 54.367188 L 255.417969 54.496094 C 255.199219 54.585938 255.027344 54.671875 254.898438 54.714844 C 254.726562 54.800781 254.507812 54.929688 254.335938 55.015625 L 254.121094 55.144531 C 253.773438 55.320312 253.472656 55.492188 253.214844 55.707031 C 253.082031 55.75 252.996094 55.835938 252.867188 55.921875 C 252.695312 56.054688 252.5625 56.183594 252.4375 56.269531 C 252.347656 56.355469 252.261719 56.441406 252.132812 56.527344 C 252.046875 56.613281 251.960938 56.699219 251.960938 56.699219 C 251.789062 56.832031 251.703125 57.089844 251.832031 57.304688 C 251.832031 57.347656 251.875 57.390625 251.917969 57.390625 C 252.046875 57.523438 252.261719 57.566406 252.4375 57.480469 Z M 48.679688 88.976562 C 48.679688 88.976562 48.804688 88.847656 49.023438 88.542969 C 49.066406 88.5 49.109375 88.414062 49.152344 88.371094 L 49.238281 88.242188 C 49.367188 88.066406 49.539062 87.941406 49.671875 87.765625 C 49.757812 87.679688 49.800781 87.59375 49.929688 87.550781 C 50.015625 87.464844 50.105469 87.378906 50.230469 87.246094 C 50.273438 87.203125 50.363281 87.117188 50.492188 87.074219 C 50.578125 86.988281 50.707031 86.902344 50.792969 86.816406 C 50.882812 86.730469 51.011719 86.6875 51.097656 86.597656 C 51.226562 86.554688 51.355469 86.46875 51.398438 86.382812 L 51.570312 86.296875 C 51.789062 86.210938 51.960938 86.125 52.175781 85.996094 L 52.394531 85.910156 C 52.566406 85.820312 52.738281 85.734375 53.042969 85.605469 C 53.257812 85.519531 53.515625 85.390625 53.777344 85.304688 C 54.121094 85.175781 54.46875 85.042969 54.769531 84.957031 L 56.800781 84.265625 C 56.972656 84.222656 57.101562 84.007812 57.101562 83.835938 C 57.101562 83.617188 56.929688 83.445312 56.757812 83.359375 C 56.757812 83.359375 56.023438 83.144531 54.941406 83.1875 L 54.8125 83.1875 C 54.597656 83.1875 54.378906 83.1875 54.121094 83.230469 L 53.902344 83.273438 C 53.644531 83.273438 53.429688 83.316406 53.167969 83.402344 C 52.867188 83.445312 52.523438 83.53125 52.261719 83.660156 C 52.003906 83.703125 51.746094 83.792969 51.527344 83.921875 L 51.226562 84.050781 C 50.882812 84.222656 50.578125 84.394531 50.273438 84.613281 C 49.972656 84.828125 49.714844 85.042969 49.414062 85.304688 L 49.238281 85.476562 C 49.109375 85.691406 48.894531 85.863281 48.761719 86.082031 L 48.679688 86.253906 C 48.503906 86.46875 48.375 86.644531 48.332031 86.859375 C 48.246094 87.03125 48.160156 87.203125 48.113281 87.421875 L 48.027344 87.59375 C 47.984375 87.765625 47.941406 87.898438 47.898438 88.15625 L 47.855469 88.632812 C 47.855469 88.757812 47.898438 88.890625 47.984375 89.019531 C 48.027344 89.0625 48.070312 89.0625 48.160156 89.105469 C 48.332031 89.191406 48.546875 89.105469 48.679688 88.976562 Z M 59.78125 216.820312 L 58.097656 216.820312 C 57.878906 216.777344 57.707031 216.820312 57.492188 216.820312 C 57.144531 216.777344 56.757812 216.820312 56.367188 216.777344 L 55.890625 216.777344 C 55.503906 216.734375 55.113281 216.734375 54.769531 216.691406 L 54.25 216.648438 C 53.902344 216.648438 53.558594 216.605469 53.214844 216.5625 C 53.042969 216.519531 52.867188 216.519531 52.695312 216.476562 C 52.394531 216.476562 52.089844 216.433594 51.832031 216.390625 C 51.398438 216.304688 51.011719 216.261719 50.707031 216.21875 C 50.492188 216.175781 50.320312 216.128906 50.148438 216.085938 C 50.015625 216.085938 49.929688 216.042969 49.800781 216 L 49.023438 215.871094 C 48.847656 215.828125 48.679688 215.914062 48.589844 216.085938 C 48.589844 216.21875 48.589844 216.347656 48.71875 216.433594 C 48.71875 216.476562 48.761719 216.476562 48.761719 216.519531 C 48.761719 216.519531 49.023438 216.648438 49.539062 216.863281 C 49.628906 216.910156 49.757812 216.953125 49.84375 216.996094 C 50.015625 217.082031 50.1875 217.167969 50.449219 217.253906 L 51.570312 217.601562 C 51.960938 217.773438 52.394531 217.859375 52.867188 217.945312 L 52.953125 217.945312 C 53.472656 218.074219 54.035156 218.160156 54.554688 218.246094 C 55.070312 218.335938 55.675781 218.378906 56.28125 218.421875 C 56.667969 218.464844 57.101562 218.464844 57.492188 218.464844 L 58.097656 218.507812 C 58.398438 218.507812 58.742188 218.507812 59.089844 218.464844 C 59.347656 218.464844 59.609375 218.464844 59.824219 218.421875 C 60.429688 218.421875 61.035156 218.378906 61.554688 218.289062 C 62.546875 218.160156 63.539062 217.988281 64.578125 217.816406 C 66.261719 217.425781 67.386719 216.996094 67.429688 216.996094 C 67.558594 216.910156 67.644531 216.734375 67.644531 216.605469 C 67.558594 216.433594 67.429688 216.304688 67.253906 216.347656 C 67.253906 216.347656 66.089844 216.433594 64.359375 216.5625 L 63.84375 216.605469 C 63.582031 216.605469 63.28125 216.648438 62.976562 216.648438 L 61.421875 216.734375 C 61.164062 216.777344 60.90625 216.777344 60.601562 216.777344 C 60.34375 216.777344 60.039062 216.777344 59.78125 216.820312 Z M 130.636719 49.097656 C 130.636719 49.097656 130.078125 48.835938 129.039062 48.578125 L 128.609375 48.449219 C 128.175781 48.363281 127.746094 48.277344 127.136719 48.191406 C 126.792969 48.144531 126.445312 48.101562 126.101562 48.058594 L 124.847656 47.972656 C 123.984375 47.929688 123.035156 47.929688 122.039062 47.972656 L 121.738281 48.015625 C 120.832031 48.058594 119.878906 48.144531 118.972656 48.320312 C 117.890625 48.492188 116.8125 48.75 115.6875 49.054688 C 114.910156 49.269531 114.175781 49.527344 113.441406 49.789062 C 113.097656 49.917969 112.75 50.046875 112.363281 50.179688 C 111.324219 50.652344 110.246094 51.128906 109.207031 51.648438 C 108.257812 52.207031 107.265625 52.769531 106.355469 53.332031 C 105.492188 53.933594 104.628906 54.585938 103.894531 55.144531 C 103.332031 55.578125 102.855469 56.011719 102.382812 56.441406 L 101.777344 57.003906 C 101.085938 57.652344 100.566406 58.171875 100.132812 58.6875 L 98.96875 60.070312 C 98.320312 60.851562 98.019531 61.28125 98.019531 61.28125 C 97.757812 61.628906 97.800781 62.058594 98.0625 62.363281 C 98.0625 62.363281 98.0625 62.363281 98.105469 62.40625 C 98.363281 62.664062 98.753906 62.707031 99.097656 62.535156 C 99.097656 62.535156 99.617188 62.273438 100.4375 61.753906 C 100.871094 61.496094 101.386719 61.152344 101.949219 60.761719 C 102.296875 60.503906 102.640625 60.285156 103.03125 60.070312 C 103.289062 59.941406 103.546875 59.769531 103.765625 59.640625 L 105.191406 58.773438 C 105.40625 58.601562 105.664062 58.472656 106.011719 58.300781 L 106.746094 57.910156 C 107.308594 57.566406 107.910156 57.21875 108.472656 56.917969 L 109.421875 56.441406 C 110.03125 56.140625 110.632812 55.835938 111.195312 55.578125 L 111.628906 55.363281 C 112.449219 55.015625 113.226562 54.671875 114.046875 54.324219 L 115.90625 53.632812 C 116.25 53.503906 116.554688 53.375 116.898438 53.289062 C 117.332031 53.160156 117.761719 53.027344 118.152344 52.855469 L 118.453125 52.769531 C 118.714844 52.683594 118.929688 52.640625 119.234375 52.554688 C 119.402344 52.511719 119.621094 52.464844 119.835938 52.382812 C 120.570312 52.164062 121.304688 51.992188 121.996094 51.863281 L 122.601562 51.730469 C 122.816406 51.648438 123.078125 51.601562 123.335938 51.558594 C 123.507812 51.558594 123.683594 51.515625 123.8125 51.472656 L 124.285156 51.386719 C 124.546875 51.34375 124.761719 51.300781 125.019531 51.257812 L 125.582031 51.171875 C 126.144531 51.085938 126.707031 50.996094 127.226562 50.953125 C 127.613281 50.914062 128.003906 50.867188 128.304688 50.824219 L 128.824219 50.78125 C 129.082031 50.78125 129.34375 50.78125 129.558594 50.738281 L 129.949219 50.738281 C 130.25 50.738281 130.378906 50.695312 130.378906 50.695312 C 130.769531 50.652344 131.070312 50.394531 131.15625 50.003906 C 131.199219 49.570312 130.984375 49.226562 130.636719 49.097656 Z M 96.765625 210.601562 L 97.757812 211.074219 C 97.847656 211.121094 97.972656 211.160156 98.105469 211.25 C 98.363281 211.335938 98.625 211.464844 98.925781 211.550781 C 99.359375 211.722656 99.875 211.855469 100.394531 212.027344 C 100.828125 212.199219 101.257812 212.285156 101.734375 212.371094 C 101.90625 212.414062 102.078125 212.457031 102.253906 212.503906 C 102.988281 212.671875 103.722656 212.804688 104.371094 212.890625 C 105.015625 212.976562 105.75 213.0625 106.617188 213.105469 C 107.136719 213.148438 107.652344 213.191406 108.171875 213.191406 L 110.460938 213.191406 C 110.71875 213.148438 111.023438 213.148438 111.28125 213.148438 C 112.058594 213.105469 112.792969 213.019531 113.527344 212.933594 C 114.175781 212.890625 114.824219 212.804688 115.605469 212.628906 C 116.164062 212.589844 116.683594 212.457031 117.15625 212.371094 L 117.460938 212.285156 C 119.75 211.8125 121.175781 211.25 121.21875 211.203125 C 121.394531 211.160156 121.480469 210.988281 121.4375 210.816406 C 121.394531 210.644531 121.261719 210.558594 121.089844 210.558594 C 121.089844 210.558594 120.703125 210.601562 120.011719 210.644531 C 119.363281 210.730469 118.410156 210.773438 117.289062 210.902344 C 116.855469 210.902344 116.421875 210.945312 115.949219 210.945312 L 115.429688 211.03125 C 114.78125 211.03125 114.089844 211.074219 113.398438 211.121094 C 113.054688 211.121094 112.664062 211.160156 112.320312 211.160156 C 111.929688 211.160156 111.585938 211.160156 111.238281 211.203125 L 107.996094 211.203125 C 107.566406 211.203125 107.136719 211.203125 106.746094 211.160156 C 106.398438 211.160156 106.097656 211.121094 105.75 211.121094 C 105.363281 211.121094 104.972656 211.074219 104.585938 211.03125 C 104.324219 211.03125 104.066406 210.988281 103.808594 210.988281 C 103.375 210.945312 102.945312 210.945312 102.554688 210.859375 C 102.296875 210.859375 102.035156 210.816406 101.777344 210.773438 C 101.433594 210.773438 101.085938 210.730469 100.742188 210.644531 C 100.308594 210.558594 99.875 210.515625 99.53125 210.46875 L 99.226562 210.425781 C 98.753906 210.339844 98.363281 210.253906 98.0625 210.167969 C 97.371094 210.039062 96.980469 209.996094 96.980469 209.996094 C 96.808594 209.953125 96.636719 210.039062 96.59375 210.210938 C 96.59375 210.339844 96.59375 210.46875 96.679688 210.558594 C 96.722656 210.558594 96.765625 210.601562 96.765625 210.601562 Z M 108.042969 63.527344 C 108.042969 63.527344 108.300781 63.355469 108.734375 63.097656 C 109.164062 62.792969 109.769531 62.363281 110.503906 61.929688 C 111.238281 61.496094 112.148438 61.019531 113.097656 60.589844 C 113.398438 60.417969 113.703125 60.285156 114.003906 60.160156 C 114.21875 60.070312 114.394531 59.984375 114.609375 59.941406 C 115.085938 59.726562 115.644531 59.507812 116.164062 59.335938 C 116.726562 59.164062 117.246094 58.992188 117.808594 58.816406 C 118.324219 58.6875 118.886719 58.558594 119.402344 58.429688 C 120.355469 58.214844 121.304688 58.039062 122.300781 57.867188 C 123.164062 57.738281 123.898438 57.652344 124.375 57.609375 C 124.546875 57.566406 124.675781 57.566406 124.804688 57.523438 C 124.847656 57.566406 124.847656 57.523438 124.890625 57.523438 C 124.933594 57.523438 124.976562 57.480469 125.019531 57.4375 C 125.152344 57.347656 125.28125 57.132812 125.238281 56.960938 C 125.238281 56.832031 125.152344 56.65625 125.019531 56.570312 C 124.976562 56.527344 124.933594 56.527344 124.847656 56.484375 C 124.804688 56.441406 124.675781 56.441406 124.589844 56.441406 L 124.417969 56.441406 C 123.726562 56.3125 122.949219 56.269531 122.214844 56.269531 C 121.261719 56.226562 120.183594 56.269531 119.015625 56.441406 C 118.453125 56.527344 117.851562 56.613281 117.246094 56.789062 C 116.683594 56.917969 116.078125 57.089844 115.472656 57.304688 C 114.824219 57.523438 114.21875 57.78125 113.746094 57.957031 C 113.269531 58.214844 112.75 58.472656 112.320312 58.730469 L 112.148438 58.773438 C 111.238281 59.335938 110.332031 59.941406 109.554688 60.589844 C 108.863281 61.195312 108.34375 61.753906 107.953125 62.1875 C 107.609375 62.621094 107.394531 62.835938 107.394531 62.835938 C 107.265625 63.054688 107.308594 63.3125 107.4375 63.441406 C 107.609375 63.613281 107.871094 63.65625 108.042969 63.527344 Z M 128.433594 215.742188 C 128.433594 215.742188 127.789062 215.785156 126.621094 215.914062 C 126.101562 215.957031 125.453125 216 124.71875 216.085938 L 122.171875 216.261719 C 121.261719 216.347656 120.269531 216.390625 119.1875 216.476562 C 118.625 216.519531 118.066406 216.519531 117.503906 216.5625 C 116.941406 216.605469 116.382812 216.605469 115.820312 216.648438 C 115.214844 216.691406 114.566406 216.734375 113.917969 216.734375 C 113.398438 216.734375 112.835938 216.734375 112.320312 216.777344 L 110.675781 216.777344 C 109.988281 216.820312 109.296875 216.820312 108.605469 216.820312 C 107.996094 216.777344 107.394531 216.777344 106.746094 216.777344 L 104.972656 216.734375 C 104.542969 216.691406 104.109375 216.691406 103.679688 216.691406 C 102.945312 216.648438 102.164062 216.605469 101.433594 216.519531 C 100.957031 216.476562 100.480469 216.476562 100.050781 216.433594 C 99.398438 216.390625 98.753906 216.347656 98.105469 216.261719 L 96.59375 216.085938 C 96.417969 216.042969 96.246094 216.042969 96.074219 216 L 95.167969 215.914062 C 94.257812 215.742188 93.394531 215.613281 92.660156 215.527344 C 92.359375 215.4375 92.054688 215.394531 91.753906 215.308594 C 91.363281 215.265625 91.0625 215.179688 90.757812 215.136719 C 89.679688 214.921875 89.03125 214.792969 89.03125 214.792969 C 88.726562 214.75 88.425781 214.921875 88.382812 215.179688 C 88.296875 215.394531 88.339844 215.65625 88.511719 215.785156 L 88.644531 215.914062 C 88.644531 215.914062 89.246094 216.21875 90.285156 216.648438 C 90.457031 216.734375 90.671875 216.820312 90.886719 216.910156 C 91.277344 217.082031 91.667969 217.296875 92.140625 217.46875 L 92.921875 217.730469 C 93.480469 217.902344 94.042969 218.074219 94.605469 218.246094 C 95.296875 218.507812 96.074219 218.636719 96.851562 218.808594 L 97.671875 219.023438 C 98.710938 219.242188 99.789062 219.457031 101.085938 219.632812 C 102.296875 219.804688 103.546875 219.890625 104.757812 220.019531 C 105.621094 220.105469 106.484375 220.105469 107.308594 220.105469 C 107.738281 220.105469 108.171875 220.105469 108.605469 220.148438 C 109.640625 220.148438 110.71875 220.105469 111.757812 220.0625 L 112.40625 220.019531 C 113.660156 219.933594 114.910156 219.847656 116.078125 219.714844 C 117.375 219.589844 118.496094 219.414062 119.492188 219.242188 C 120.570312 219.070312 121.609375 218.851562 122.558594 218.679688 C 123.207031 218.507812 123.8125 218.378906 124.375 218.203125 L 125.066406 218.03125 C 125.84375 217.859375 126.492188 217.644531 127.007812 217.46875 C 128.089844 217.167969 128.695312 216.910156 128.695312 216.910156 C 128.953125 216.777344 129.125 216.476562 129.039062 216.21875 C 128.953125 215.914062 128.738281 215.742188 128.433594 215.742188 Z M 64.535156 220.796875 C 64.144531 220.839844 63.710938 220.839844 63.28125 220.882812 C 62.804688 220.925781 62.332031 220.925781 61.855469 220.925781 C 61.464844 220.925781 61.035156 220.96875 60.601562 220.96875 L 59.824219 220.96875 C 59.175781 221.011719 58.484375 221.011719 57.835938 220.96875 L 56.757812 220.96875 C 56.195312 220.96875 55.632812 220.96875 55.070312 220.925781 C 54.726562 220.925781 54.378906 220.925781 54.035156 220.882812 C 53.472656 220.882812 52.910156 220.882812 52.351562 220.796875 L 51.527344 220.710938 C 50.964844 220.710938 50.40625 220.667969 49.84375 220.582031 L 48.679688 220.449219 C 48.289062 220.40625 47.984375 220.367188 47.640625 220.324219 C 46.949219 220.191406 46.300781 220.105469 45.738281 220.019531 L 44.269531 219.714844 C 43.449219 219.542969 42.972656 219.5 42.972656 219.5 C 42.671875 219.457031 42.371094 219.632812 42.28125 219.890625 C 42.238281 220.105469 42.28125 220.324219 42.453125 220.496094 C 42.496094 220.539062 42.542969 220.582031 42.628906 220.625 L 44.140625 221.316406 C 44.488281 221.445312 44.832031 221.617188 45.265625 221.792969 L 45.910156 221.964844 C 46.300781 222.09375 46.691406 222.265625 47.121094 222.351562 C 47.640625 222.570312 48.160156 222.65625 48.71875 222.785156 C 48.980469 222.871094 49.195312 222.914062 49.453125 222.957031 C 50.320312 223.171875 51.269531 223.304688 52.089844 223.390625 C 52.996094 223.5625 53.992188 223.648438 54.898438 223.691406 C 55.632812 223.777344 56.410156 223.777344 57.144531 223.777344 L 57.792969 223.820312 C 58.484375 223.820312 59.089844 223.777344 59.78125 223.777344 L 60.730469 223.734375 C 61.679688 223.691406 62.589844 223.605469 63.496094 223.519531 C 64.492188 223.390625 65.355469 223.261719 66.089844 223.128906 C 66.78125 223.042969 67.386719 222.914062 67.988281 222.785156 L 68.421875 222.699219 C 71.230469 222.09375 73.046875 221.402344 73.089844 221.359375 C 73.390625 221.226562 73.519531 220.96875 73.476562 220.667969 C 73.433594 220.367188 73.175781 220.148438 72.828125 220.234375 C 72.828125 220.234375 72.355469 220.234375 71.53125 220.324219 C 71.015625 220.367188 70.367188 220.40625 69.632812 220.449219 L 65.828125 220.753906 C 65.398438 220.796875 64.964844 220.796875 64.535156 220.796875 Z M 61.554688 74.328125 C 61.554688 74.675781 61.292969 75.019531 60.945312 75.148438 L 57.058594 76.359375 C 55.9375 76.707031 54.636719 77.136719 53.300781 77.65625 C 52.652344 77.917969 51.960938 78.175781 51.269531 78.433594 C 50.578125 78.734375 49.929688 79.039062 49.238281 79.386719 C 48.589844 79.730469 47.941406 80.074219 47.292969 80.421875 C 46.691406 80.8125 46.128906 81.15625 45.609375 81.546875 C 45.308594 81.761719 45.046875 81.976562 44.789062 82.191406 C 44.53125 82.367188 44.269531 82.582031 44.054688 82.796875 C 43.796875 83.015625 43.621094 83.1875 43.449219 83.359375 C 43.148438 83.617188 42.972656 83.792969 42.800781 84.007812 C 42.410156 84.4375 42.066406 84.828125 41.808594 85.175781 L 41.074219 86.167969 C 40.683594 86.730469 40.425781 87.117188 40.425781 87.117188 C 40.207031 87.378906 39.820312 87.507812 39.472656 87.378906 C 39.34375 87.332031 39.257812 87.289062 39.128906 87.203125 C 39 87.03125 38.871094 86.816406 38.914062 86.554688 C 38.914062 86.554688 38.914062 86.125 39 85.304688 C 39.128906 84.828125 39.214844 84.351562 39.386719 83.878906 C 39.558594 83.316406 39.777344 82.753906 40.121094 82.105469 C 40.207031 81.847656 40.382812 81.546875 40.597656 81.199219 C 40.8125 80.898438 41.027344 80.550781 41.246094 80.246094 C 41.460938 79.902344 41.761719 79.601562 42.023438 79.296875 C 42.28125 78.996094 42.585938 78.691406 42.886719 78.390625 C 43.492188 77.828125 44.140625 77.265625 44.960938 76.75 C 45.609375 76.273438 46.34375 75.839844 47.25 75.367188 C 48.160156 74.933594 48.9375 74.589844 49.714844 74.371094 C 50.492188 74.070312 51.355469 73.855469 52.132812 73.679688 C 53.601562 73.378906 55.113281 73.164062 56.539062 73.121094 C 57.925781 73.078125 59.003906 73.203125 59.695312 73.292969 C 60.472656 73.378906 60.90625 73.507812 60.90625 73.507812 C 61.292969 73.636719 61.554688 73.9375 61.554688 74.328125 " fill-opacity="1" fill-rule="nonzero"/><g transform="matrix(1, 0, 0, 1, 30, 262)"><g clip-path="url(#9910becf39)"><g fill="#000000" fill-opacity="1"><g transform="translate(0.956372, 26.766416)"><g><path d="M 9.359375 -24.078125 L 9.125 -24.078125 L 9.125 -12.15625 C 9.21875 -12.15625 9.492188 -12.164062 9.953125 -12.1875 C 10.410156 -12.21875 10.96875 -12.289062 11.625 -12.40625 C 12.28125 -12.519531 12.957031 -12.695312 13.65625 -12.9375 C 14.363281 -13.175781 15.007812 -13.515625 15.59375 -13.953125 C 16.1875 -14.390625 16.628906 -14.957031 16.921875 -15.65625 L 16.921875 -8.53125 C 16.628906 -9.21875 16.1875 -9.78125 15.59375 -10.21875 C 15.007812 -10.65625 14.363281 -10.992188 13.65625 -11.234375 C 12.957031 -11.484375 12.28125 -11.664062 11.625 -11.78125 C 10.96875 -11.894531 10.410156 -11.960938 9.953125 -11.984375 C 9.492188 -12.003906 9.21875 -12.015625 9.125 -12.015625 L 9.125 -2.875 C 9.125 -1.96875 9.175781 -1.300781 9.28125 -0.875 C 9.382812 -0.445312 9.539062 -0.15625 9.75 0 L 0.6875 0 C 0.875 -0.15625 1.023438 -0.445312 1.140625 -0.875 C 1.253906 -1.300781 1.3125 -1.96875 1.3125 -2.875 L 1.3125 -21.3125 C 1.3125 -22.207031 1.253906 -22.867188 1.140625 -23.296875 C 1.023438 -23.722656 0.875 -24.019531 0.6875 -24.1875 L 19.546875 -24.1875 L 20.03125 -17.828125 C 18.945312 -19.765625 17.445312 -21.289062 15.53125 -22.40625 C 13.625 -23.519531 11.566406 -24.078125 9.359375 -24.078125 Z M 9.359375 -24.078125 "/></g></g></g><g fill="#000000" fill-opacity="1"><g transform="translate(27.83851, 26.766416)"><g><path d="M 0.6875 0 C 0.875 -0.15625 1.023438 -0.445312 1.140625 -0.875 C 1.253906 -1.300781 1.3125 -1.96875 1.3125 -2.875 L 1.3125 -21.3125 C 1.3125 -22.207031 1.253906 -22.867188 1.140625 -23.296875 C 1.023438 -23.722656 0.875 -24.019531 0.6875 -24.1875 L 9.75 -24.1875 C 9.539062 -24.019531 9.382812 -23.722656 9.28125 -23.296875 C 9.175781 -22.867188 9.125 -22.207031 9.125 -21.3125 L 9.125 -2.875 C 9.125 -1.96875 9.175781 -1.300781 9.28125 -0.875 C 9.382812 -0.445312 9.539062 -0.15625 9.75 0 Z M 0.6875 0 "/></g></g></g><g fill="#000000" fill-opacity="1"><g transform="translate(45.184706, 26.766416)"><g><path d="M 13.203125 -11.40625 C 13.546875 -11.082031 14.046875 -10.765625 14.703125 -10.453125 C 15.359375 -10.140625 16.203125 -9.910156 17.234375 -9.765625 C 18.273438 -9.628906 19.53125 -9.65625 21 -9.84375 L 21 -0.421875 C 20.351562 -0.648438 19.59375 -0.785156 18.71875 -0.828125 C 17.84375 -0.867188 16.96875 -0.847656 16.09375 -0.765625 C 15.21875 -0.691406 14.445312 -0.578125 13.78125 -0.421875 C 12.925781 -0.179688 12.328125 -0.0507812 11.984375 -0.03125 C 11.640625 -0.0078125 11.34375 0 11.09375 0 C 9.707031 0 8.378906 -0.265625 7.109375 -0.796875 C 5.847656 -1.328125 4.722656 -2.078125 3.734375 -3.046875 C 2.765625 -4.035156 2.015625 -5.160156 1.484375 -6.421875 C 0.953125 -7.691406 0.6875 -9.019531 0.6875 -10.40625 L 0.6875 -13.78125 C 0.6875 -15.207031 0.957031 -16.546875 1.5 -17.796875 C 2.039062 -19.054688 2.789062 -20.164062 3.75 -21.125 C 4.707031 -22.082031 5.8125 -22.832031 7.0625 -23.375 C 8.320312 -23.914062 9.664062 -24.1875 11.09375 -24.1875 L 11.46875 -24.1875 C 14.738281 -24.1875 17.789062 -23.378906 20.625 -21.765625 L 14.921875 -13.515625 C 14.941406 -13.578125 15.066406 -13.875 15.296875 -14.40625 C 15.535156 -14.9375 15.773438 -15.601562 16.015625 -16.40625 C 16.253906 -17.21875 16.4375 -18.0625 16.5625 -18.9375 C 16.6875 -19.8125 16.664062 -20.632812 16.5 -21.40625 C 16.34375 -22.175781 15.960938 -22.804688 15.359375 -23.296875 C 14.765625 -23.796875 13.867188 -24.046875 12.671875 -24.046875 L 11.09375 -24.078125 C 10.375 -24.078125 9.757812 -23.820312 9.25 -23.3125 C 8.75 -22.8125 8.5 -22.203125 8.5 -21.484375 L 8.5 -2.6875 C 8.5 -1.976562 8.75 -1.367188 9.25 -0.859375 C 9.757812 -0.359375 10.375 -0.109375 11.09375 -0.109375 C 11.6875 -0.109375 12.1875 -0.316406 12.59375 -0.734375 C 13 -1.160156 13.203125 -1.664062 13.203125 -2.25 Z M 13.203125 -11.40625 "/></g></g></g><g fill="#000000" fill-opacity="1"><g transform="translate(73.241602, 26.766416)"><g><path d="M 13.578125 0 C 13.765625 -0.15625 13.914062 -0.445312 14.03125 -0.875 C 14.144531 -1.300781 14.203125 -1.96875 14.203125 -2.875 L 14.203125 -12.015625 L 9.125 -12.015625 L 9.125 -2.875 C 9.125 -1.96875 9.175781 -1.300781 9.28125 -0.875 C 9.382812 -0.445312 9.539062 -0.15625 9.75 0 L 0.6875 0 C 0.875 -0.15625 1.023438 -0.445312 1.140625 -0.875 C 1.253906 -1.300781 1.3125 -1.96875 1.3125 -2.875 L 1.3125 -21.3125 C 1.3125 -22.207031 1.253906 -22.867188 1.140625 -23.296875 C 1.023438 -23.722656 0.875 -24.019531 0.6875 -24.1875 L 9.75 -24.1875 C 9.539062 -24.019531 9.382812 -23.722656 9.28125 -23.296875 C 9.175781 -22.867188 9.125 -22.207031 9.125 -21.3125 L 9.125 -12.15625 L 14.203125 -12.15625 L 14.203125 -21.3125 C 14.203125 -22.207031 14.144531 -22.867188 14.03125 -23.296875 C 13.914062 -23.722656 13.765625 -24.019531 13.578125 -24.1875 L 22.625 -24.1875 C 22.445312 -24.019531 22.296875 -23.722656 22.171875 -23.296875 C 22.054688 -22.867188 22 -22.207031 22 -21.3125 L 22 -2.875 C 22 -1.96875 22.054688 -1.300781 22.171875 -0.875 C 22.296875 -0.445312 22.445312 -0.15625 22.625 0 Z M 13.578125 0 "/></g></g></g><g fill="#000000" fill-opacity="1"><g transform="translate(102.715053, 26.766416)"><g><path d="M 27.703125 -17.828125 C 27.035156 -19.023438 26.210938 -20.082031 25.234375 -21 C 24.253906 -21.925781 23.160156 -22.660156 21.953125 -23.203125 C 20.742188 -23.742188 19.460938 -24.015625 18.109375 -24.015625 L 18.109375 -2.875 C 18.109375 -1.96875 18.164062 -1.300781 18.28125 -0.875 C 18.394531 -0.445312 18.539062 -0.15625 18.71875 0 L 9.671875 0 C 9.859375 -0.15625 10.007812 -0.445312 10.125 -0.875 C 10.238281 -1.300781 10.296875 -1.96875 10.296875 -2.875 L 10.296875 -24.015625 C 8.960938 -24.015625 7.6875 -23.742188 6.46875 -23.203125 C 5.257812 -22.660156 4.160156 -21.925781 3.171875 -21 C 2.179688 -20.082031 1.351562 -19.023438 0.6875 -17.828125 L 1.171875 -24.1875 L 27.21875 -24.1875 Z M 27.703125 -17.828125 "/></g></g></g><g fill="#000000" fill-opacity="1"><g transform="translate(138.027662, 26.766416)"><g><path d="M 12.234375 -20.109375 C 12.234375 -19.390625 12.09375 -18.5 11.8125 -17.4375 C 11.539062 -16.382812 11.191406 -15.285156 10.765625 -14.140625 C 10.335938 -13.003906 9.914062 -11.941406 9.5 -10.953125 C 9.082031 -9.960938 8.734375 -9.15625 8.453125 -8.53125 C 8.179688 -7.90625 8.046875 -7.59375 8.046875 -7.59375 C 8.046875 -7.59375 7.898438 -7.90625 7.609375 -8.53125 C 7.328125 -9.15625 6.972656 -9.960938 6.546875 -10.953125 C 6.117188 -11.941406 5.6875 -13.003906 5.25 -14.140625 C 4.8125 -15.285156 4.445312 -16.382812 4.15625 -17.4375 C 3.875 -18.5 3.734375 -19.390625 3.734375 -20.109375 C 3.734375 -20.722656 3.921875 -21.34375 4.296875 -21.96875 C 4.679688 -22.59375 5.195312 -23.117188 5.84375 -23.546875 C 6.488281 -23.972656 7.203125 -24.1875 7.984375 -24.1875 C 8.765625 -24.1875 9.476562 -23.972656 10.125 -23.546875 C 10.769531 -23.117188 11.28125 -22.59375 11.65625 -21.96875 C 12.039062 -21.34375 12.234375 -20.722656 12.234375 -20.109375 Z M 10.640625 -2.65625 C 10.640625 -1.945312 10.378906 -1.328125 9.859375 -0.796875 C 9.335938 -0.265625 8.710938 0 7.984375 0 C 7.242188 0 6.613281 -0.265625 6.09375 -0.796875 C 5.570312 -1.328125 5.3125 -1.945312 5.3125 -2.65625 C 5.3125 -3.394531 5.570312 -4.019531 6.09375 -4.53125 C 6.613281 -5.050781 7.242188 -5.3125 7.984375 -5.3125 C 8.710938 -5.3125 9.335938 -5.050781 9.859375 -4.53125 C 10.378906 -4.019531 10.640625 -3.394531 10.640625 -2.65625 Z M 10.640625 -2.65625 "/></g></g></g></g></g></svg>